<?xml version="1.0" encoding="UTF-8" standalone="no"?>
<!-- Created with Inkscape (http://www.inkscape.org/) -->

<svg
   width="114.254mm"
   height="29.333mm"
   viewBox="0 0 114.254 29.333"
   version="1.1"
   id="svg1"
   inkscape:version="1.4.3 (0d15f75042, 2025-12-25)"
   sodipodi:docname="kyaraben-logo-with-bg.svg"
   xml:space="preserve"
   xmlns:inkscape="http://www.inkscape.org/namespaces/inkscape"
   xmlns:sodipodi="http://sodipodi.sourceforge.net/DTD/sodipodi-0.dtd"
   xmlns="http://www.w3.org/2000/svg"
   xmlns:svg="http://www.w3.org/2000/svg"><sodipodi:namedview
     id="namedview1"
     pagecolor="#ffffff"
     bordercolor="#000000"
     borderopacity="0.25"
     inkscape:showpageshadow="2"
     inkscape:pageopacity="0.0"
     inkscape:pagecheckerboard="0"
     inkscape:deskcolor="#d1d1d1"
     inkscape:document-units="mm"
     inkscape:zoom="1.968291"
     inkscape:cx="148.86011"
     inkscape:cy="45.470919"
     inkscape:window-width="1646"
     inkscape:window-height="987"
     inkscape:window-x="0"
     inkscape:window-y="0"
     inkscape:window-maximized="1"
     inkscape:current-layer="layer2"><inkscape:page
       x="0"
       y="0"
       width="114.254"
       height="29.333"
       id="page6"
       margin="0"
       bleed="0" /></sodipodi:namedview><defs
     id="defs1"><rect
       x="142.06136"
       y="336.57614"
       width="334.39059"
       height="237.13319"
       id="rect6" /><rect
       x="114.74187"
       y="257.896"
       width="478.63751"
       height="179.21587"
       id="rect4" /><rect
       x="152.98915"
       y="266.63824"
       width="486.28696"
       height="206.53535"
       id="rect3" /><rect
       x="87.422371"
       y="227.29817"
       width="594.47217"
       height="335.48337"
       id="rect2" /><rect
       x="116.92743"
       y="115.83465"
       width="496.12198"
       height="195.60756"
       id="rect1" /></defs><g
     inkscape:groupmode="layer"
     id="layer2"
     inkscape:label="Layer 2"><rect
       style="fill:#d0ccc6;fill-opacity:1;stroke-width:2;paint-order:stroke fill markers"
       id="rect5"
       width="114.254"
       height="29.333"
       x="0.0019088988"
       y="0.0011671019"
       ry="3"
       rx="3" /><rect
       style="fill:#000000;stroke-width:2;paint-order:stroke fill markers"
       id="rect7"
       width="0.036173504"
       height="0.039274089"
       x="0.067179359"
       y="0.075447589" /></g><g
     inkscape:label="Layer 1"
     inkscape:groupmode="layer"
     id="layer1"
     transform="translate(-27.178341,-37.587068)"><path
       d="m 119.03973,200.37665 v -0.96 l 2.016,-0.768 q 1.92,-0.672 2.496,-1.824 0.576,-1.152 0.576,-2.976 v -50.208 q 0,-1.92 -0.576,-3.072 -0.576,-1.152 -2.496,-1.824 l -2.016,-0.768 v -0.96 h 23.904 v 0.96 l -2.112,0.864 q -1.632,0.576 -2.208,1.728 -0.576,1.152 -0.576,3.168 v 50.208 q 0,1.92 0.576,2.976 0.672,1.056 2.496,1.728 l 1.824,0.768 v 0.96 z m 35.424,0 v -0.96 l 1.248,-0.384 q 1.92,-0.576 2.016,-1.92 0.096,-1.344 -1.152,-3.072 l -18.528,-26.208 24.384,-24.768 q 1.344,-1.344 1.44,-2.592 0.192,-1.248 -1.824,-1.92 l -1.632,-0.576 v -0.96 h 14.016 v 0.96 l -2.496,0.768 q -2.112,0.672 -3.36,1.632 -1.248,0.96 -2.88,2.592 l -17.28,17.568 22.656,32.928 q 1.44,2.112 2.688,3.456 1.344,1.344 3.744,2.112 l 1.344,0.384 v 0.96 z m 31.20001,23.04 q -3.84,0 -6.144,-1.92 -2.208,-1.92 -2.208,-4.896 0,-2.688 1.92,-4.32 1.92,-1.632 4.32,-1.632 2.4,0 4.032,0.96 1.632,1.056 2.88,2.976 l 0.672,0.768 q 2.112,2.88 4.224,-0.096 0.864,-1.44 1.92,-3.84 1.152,-2.304 2.592,-6.24 l -18.624,-44.544 q -0.672,-1.824 -1.44,-2.88 -0.768,-1.152 -2.496,-1.92 l -1.728,-0.672 v -0.96 h 23.904 v 0.864 l -1.92,0.768 q -2.112,0.672 -2.208,2.208 0,1.44 0.768,3.648 l 9.984,25.92 9.504,-26.208 q 0.768,-2.208 0.576,-3.648 -0.192,-1.536 -2.4,-2.112 l -2.016,-0.48 v -0.96 h 13.344 v 0.96 l -2.112,0.672 q -2.208,0.672 -3.072,1.92 -0.864,1.248 -1.632,3.456 l -15.456,42.144 q -3.744,10.08 -7.488,15.072 -3.744,4.992 -9.696,4.992 z m 54.43187,-21.6 q -5.568,0 -9.408,-3.168 -3.744,-3.168 -3.744,-9.12 0,-4.512 4.608,-8.256 4.608,-3.84 14.496,-5.76 1.536,-0.288 3.456,-0.576 1.92,-0.384 4.032,-0.768 v -7.584 q 0,-6.528 -1.632,-9.12 -1.536,-2.688 -4.896,-2.688 -2.304,0 -3.648,1.536 -1.344,1.44 -1.728,5.088 l -0.192,1.056 q -0.192,4.128 -2.016,6.048 -1.824,1.92 -4.512,1.92 -2.496,0 -4.128,-1.536 -1.632,-1.536 -1.632,-4.128 0,-3.936 2.688,-6.624 2.784,-2.688 7.296,-4.032 4.512,-1.344 9.792,-1.344 8.544,0 13.152,4.224 4.704,4.128 4.704,13.536 v 21.216 q 0,4.32 4.032,4.32 h 2.112 l 0.864,0.768 q -1.824,2.304 -4.032,3.552 -2.112,1.248 -6.048,1.248 -4.224,0 -6.72,-1.92 -2.4,-2.016 -3.168,-5.28 -2.88,3.072 -5.952,5.28 -2.976,2.112 -7.776,2.112 z m 5.856,-5.856 q 1.92,0 3.552,-0.864 1.728,-0.96 4.032,-2.88 v -16.128 q -0.96,0.192 -1.92,0.384 -0.96,0.192 -2.208,0.384 -4.416,1.152 -7.104,3.936 -2.592,2.688 -2.592,7.296 0,3.936 1.824,5.952 1.824,1.92 4.416,1.92 z m 29.66389,4.416 v -0.96 l 1.44,-0.384 q 1.92,-0.576 2.592,-1.728 0.768,-1.152 0.768,-2.976 v -30.048 q 0,-2.112 -0.768,-3.072 -0.672,-1.056 -2.592,-1.44 l -1.44,-0.384 v -0.96 l 16.512,-5.568 0.96,0.96 0.864,8.256 v 0.768 q 1.344,-2.688 3.456,-4.896 2.208,-2.304 4.8,-3.744 2.688,-1.44 5.28,-1.44 3.648,0 5.568,2.016 1.92,2.016 1.92,5.088 0,3.264 -1.92,5.088 -1.824,1.728 -4.416,1.728 -4.032,0 -7.104,-4.032 l -0.192,-0.192 q -0.96,-1.344 -2.208,-1.44 -1.248,-0.192 -2.304,1.152 -0.96,0.864 -1.632,2.112 -0.576,1.152 -1.152,2.688 v 26.784 q 0,3.84 3.36,4.8 l 3.072,0.864 v 0.96 z m 54.336,1.44 q -5.568,0 -9.408,-3.168 -3.744,-3.168 -3.744,-9.12 0,-4.512 4.608,-8.256 4.608,-3.84 14.496,-5.76 1.536,-0.288 3.456,-0.576 1.92,-0.384 4.032,-0.768 v -7.584 q 0,-6.528 -1.632,-9.12 -1.536,-2.688 -4.896,-2.688 -2.304,0 -3.648,1.536 -1.344,1.44 -1.728,5.088 l -0.192,1.056 q -0.192,4.128 -2.016,6.048 -1.824,1.92 -4.512,1.92 -2.496,0 -4.128,-1.536 -1.632,-1.536 -1.632,-4.128 0,-3.936 2.688,-6.624 2.784,-2.688 7.296,-4.032 4.512,-1.344 9.792,-1.344 8.544,0 13.152,4.224 4.704,4.128 4.704,13.536 v 21.216 q 0,4.32 4.032,4.32 h 2.112 l 0.864,0.768 q -1.824,2.304 -4.032,3.552 -2.112,1.248 -6.048,1.248 -4.224,0 -6.72,-1.92 -2.4,-2.016 -3.168,-5.28 -2.88,3.072 -5.952,5.28 -2.976,2.112 -7.776,2.112 z m 5.856,-5.856 q 1.92,0 3.552,-0.864 1.728,-0.96 4.032,-2.88 v -16.128 q -0.96,0.192 -1.92,0.384 -0.96,0.192 -2.208,0.384 -4.416,1.152 -7.104,3.936 -2.592,2.688 -2.592,7.296 0,3.936 1.824,5.952 1.824,1.92 4.416,1.92 z m 46.27197,5.664 -16.224,-1.248 v -0.96 l 0.96,-0.192 q 3.744,-0.864 3.744,-4.8 v -51.36 q 0,-2.016 -0.672,-3.072 -0.576,-1.056 -2.496,-1.44 l -1.344,-0.384 v -0.96 l 17.088,-4.128 1.152,0.864 -0.384,13.536 v 9.696 q 3.168,-2.208 6.912,-3.264 3.744,-1.152 7.584,-1.152 5.472,0 9.696,2.592 4.224,2.496 6.624,7.872 2.496,5.28 2.496,13.632 0,8.352 -2.784,13.92 -2.688,5.472 -7.296,8.256 -4.512,2.784 -9.984,2.784 -3.552,0 -7.2,-0.96 -3.552,-0.96 -6.336,-2.688 z m 10.272,-3.072 q 3.072,0 5.376,-1.92 2.304,-1.92 3.648,-6.528 1.344,-4.704 1.344,-12.864 0,-8.16 -1.248,-12.576 -1.248,-4.416 -3.552,-6.144 -2.208,-1.728 -5.376,-1.728 -4.512,0 -8.352,2.496 v 36.864 q 1.824,1.152 3.744,1.824 1.92,0.576 4.416,0.576 z m 53.75999,-45.792 q 6.24,0 10.656,2.592 4.416,2.496 6.72,6.912 2.4,4.32 2.4,9.888 0,1.056 -0.096,2.208 -0.096,1.056 -0.384,1.92 h -28.608 q 0.096,10.368 3.648,14.976 3.648,4.512 10.752,4.512 4.8,0 7.776,-1.536 2.976,-1.536 5.568,-4.512 l 0.96,0.864 q -2.976,5.28 -7.968,8.256 -4.896,2.976 -11.808,2.976 -6.816,0 -12.096,-2.88 -5.28,-2.976 -8.256,-8.448 -2.976,-5.472 -2.976,-13.056 0,-7.872 3.456,-13.344 3.456,-5.568 8.832,-8.448 5.472,-2.88 11.424,-2.88 z m -0.288,1.92 q -2.784,0 -4.8,1.728 -1.92,1.632 -3.072,5.952 -1.056,4.224 -1.152,12 h 16.416 q 0.96,-10.464 -0.768,-15.072 -1.728,-4.608 -6.624,-4.608 z m 24.864,45.696 v -0.96 l 1.344,-0.384 q 3.36,-0.96 3.36,-4.704 v -30.048 q 0,-2.112 -0.672,-3.072 -0.672,-1.056 -2.592,-1.44 l -1.44,-0.384 v -0.96 l 16.416,-5.568 0.96,0.96 0.768,5.76 q 3.36,-2.976 7.584,-4.896 4.224,-1.92 8.352,-1.92 6.336,0 9.696,3.456 3.456,3.456 3.456,10.56 v 27.648 q 0,3.744 3.648,4.704 l 0.864,0.288 v 0.96 h -22.656 v -0.96 l 1.248,-0.384 q 3.36,-1.056 3.36,-4.704 v -30.624 q 0,-6.144 -6.144,-6.144 -4.224,0 -9.216,4.224 v 32.64 q 0,3.744 3.36,4.704 l 0.864,0.288 v 0.96 z"
       id="text1"
       style="font-size:96px;font-family:'DeepMind Serif Display';-inkscape-font-specification:'DeepMind Serif Display';white-space:pre"
       transform="matrix(0.19720878,0,0,0.21977464,35.81641,11.015695)"
       aria-label="Kyaraben" /><text
       xml:space="preserve"
       transform="scale(0.26458333)"
       id="text2"
       style="font-style:normal;font-variant:normal;font-weight:normal;font-stretch:normal;font-size:29.3333px;font-family:DotGothic16;-inkscape-font-specification:DotGothic16;writing-mode:lr-tb;direction:ltr;white-space:pre;shape-inside:url(#rect4);display:inline;fill:#000000" /><path
       d="m 77.361025,60.991642 h 2.887129 v -1.83162 h -2.887129 v -0.56656 h 2.405941 V 56.67647 h 0.558799 v 1.435804 h 2.879368 v 0.56656 h -2.398179 v 1.83162 h 3.352795 v 0.56656 h -2.871607 v 2.887129 h -0.566561 v -2.405941 h -3.360556 z m 8.482882,-0.962377 h 1.435804 v -1.916991 h 0.56656 v 1.916991 h 0.869243 v -0.473427 h 2.483552 v 1.521176 h -0.481188 v 0.954615 H 90.23669 v 0.481188 h -0.473427 v 0.481189 h -0.566561 v -0.5588 h 0.481189 v -0.481188 h 0.481188 v -0.962376 h 0.473427 v -0.877004 h -1.83162 v 0.481188 h -0.481188 v 3.368317 h -0.558799 v -3.368317 h -1.916992 z m 8.001694,-2.871606 h 4.873971 v 0.558799 h -4.873971 z m 2.390419,6.232163 v -0.481189 h 0.962376 v -0.473427 h 0.481189 v -0.481188 h 0.473427 V 60.991642 H 98.6342 V 59.633449 H 93.364413 V 59.07465 h 5.836347 v 2.002364 h -0.481188 v 0.954615 h -0.481188 v 0.481188 h -0.481188 v 0.481189 h -0.473428 v 0.488949 h -0.962376 v 0.481188 h -2.475791 v -0.574321 z m 6.3253,0 v -0.481189 h 0.96237 v -0.473427 h 0.95462 v -0.481188 h 0.48119 V 61.47283 h 0.48118 v -0.962376 h 0.47343 v -0.954616 h 0.48119 v -0.877004 h -3.26742 v 0.954615 h -0.48119 v 0.481189 h -0.48119 v 0.481188 h -0.48119 v 0.481188 h -0.5588 v -0.56656 h 0.48119 v -0.481189 h 0.47343 v -0.473427 h 0.48119 v -0.962376 h 0.48118 v -0.962376 h 0.48119 V 56.67647 h 0.5588 v 1.039988 h -0.48119 v 0.395816 h 3.36056 v 1.521175 h -0.48119 v 0.962377 h -0.48119 v 0.962376 h -0.48119 v 0.473427 h -0.47342 v 0.481188 h -0.48119 v 0.481189 h -0.96238 v 0.488949 h -0.95461 v 0.481188 h -1.52118 v -0.574321 z m 8.00169,0 v -0.481189 h 1.4358 V 62.435206 H 112.48 v -0.877004 h -0.48119 v -0.481188 h -0.95461 v -0.481188 h -0.48119 v -0.566561 h 0.56656 v 0.481189 h 0.95462 v 0.481188 h 0.48118 v 0.481188 h 0.87701 v -0.481188 h 0.47343 v -0.962377 h 0.48118 v -1.350431 h -3.26742 v 0.481188 h -0.48119 v 0.473427 h -0.48119 v 0.481189 h -0.48118 v 0.481188 h -0.47343 v 0.481188 h -0.57432 v -0.56656 h 0.48895 v -0.481189 h 0.48118 v -0.473427 h 0.47343 V 59.07465 h 0.48119 v -0.481188 h 0.48119 v -0.962376 h 0.48119 V 56.67647 h 0.5588 v 1.039988 H 111.603 v 0.395816 h 3.36055 v 2.002364 h -0.48118 v 0.962376 h -0.48119 v 0.481188 h -0.48119 v 0.473427 h -0.47343 v 0.481188 h -0.48119 v 0.481189 h -0.48118 v 0.488949 h -1.43581 v 0.481188 h -1.52117 v -0.574321 z m 6.0847,-3.360557 h 5.83635 v 0.566561 h -5.83635 z m 8.48288,3.352796 v -0.481189 h 0.48119 v -0.954615 h 0.48119 v -0.395816 h -2.40594 v -0.56656 h 2.40594 v -1.358193 h -1.91699 v -0.558799 h 1.4358 v -0.481188 h 0.48119 v -0.962376 h 0.48119 v -0.954616 h 0.5588 v 1.039988 h -0.48119 v 0.962376 h -0.47343 v 0.395816 h 1.35043 v -0.481188 h 1.43581 v -0.395816 h -0.47343 v -0.56656 h 0.5588 v 0.481188 h 0.48119 v 0.481188 h 0.48118 v 0.481188 h 0.47343 v 0.558799 h -0.5588 v -0.473427 h -0.877 v 1.83162 h 1.91699 v 0.56656 h -1.91699 v 2.405941 h -0.5588 v -2.405941 h -1.83938 v 0.473427 h -0.47343 v 0.962376 h -0.48119 v 0.48895 h -0.48119 v 0.481188 h -1.03998 v -0.574321 z m 3.36056,-2.39818 v -1.83162 h -0.87701 v 0.473427 h -0.96237 v 1.358193 z m 3.43817,1.916991 h 5.75097 v -1.350431 h -5.26978 v -0.56656 h 5.26978 v -0.877005 h -5.75097 v -0.558799 h 2.8716 v -2.879368 h 0.56656 v 2.879368 h 2.87161 v 4.408305 h -0.5588 v -0.481188 h -5.75097 z m 1.4358,-4.710987 h -0.48119 v -0.481188 h -0.47342 v -0.5588 h 0.55879 v 0.473428 h 0.48119 v 0.481188 h 0.48119 v 1.047748 h -0.56656 z m 2.87937,0.395816 h 0.47343 v -0.481188 h 0.48118 v -0.954616 h 0.56656 v 1.039988 h -0.48118 v 0.481188 h -0.48119 v 0.481188 h -0.5588 z"
       id="text5"
       style="font-size:7.7611px;font-family:DotGothic16;-inkscape-font-specification:DotGothic16;stroke-width:0.264583"
       aria-label="キャラクター弁当" /><path
       style="fill:#000000;fill-opacity:1"
       d="m 52.765454,64.989906 c 1.237376,0.01605 2.902474,-0.308925 3.540094,-1.493312 0.227423,-0.479258 0.48882,-1.808758 0.462306,-10.875573 -0.009,-3.094024 0.710073,-7.895016 -0.599816,-10.206652 -0.508428,-0.897252 -1.274325,-1.625771 -2.047893,-1.947947 -0.715126,-0.297837 -2.084727,-0.373145 -2.994658,0.101384 -0.460849,0.240333 -1.070653,0.669212 -1.35512,0.953063 -1.118913,1.116494 -9.858802,9.827107 -10.96936,10.62162 -0.925941,0.352042 -2.253423,-0.404259 -2.253423,-1.283834 0,-0.320543 0.214969,-0.694036 0.716927,-1.245609 2.172177,-2.34262 4.394164,-4.487085 6.687965,-6.724169 2.070428,-1.976735 2.284585,-2.205102 2.284585,-2.436173 0,-0.259645 -1.52018,-0.324191 -6.353756,-0.269778 -3.162193,0.051 -4.986745,0.105028 -7.490042,0.11588 -1.331327,0.0058 -2.648678,0.810549 -2.739905,5.853323 -0.101101,5.588522 0.05832,14.430661 0.438439,16.654871 0.271565,1.589028 1.780366,2.182908 3.365439,2.182908 1.609449,0 2.162803,-0.345995 4.951905,-3.096262 1.329632,-1.311119 2.493012,-2.455332 2.585288,-2.542696 0.09228,-0.08736 0.908446,-0.987663 1.904752,-1.906127 4.573946,-4.216582 -1.159771,0.936372 3.59095,-3.387061 0.438952,-0.399471 1.539638,-0.98879 2.098048,-0.700402 1.094759,0.565382 1.181089,1.792649 0.190382,2.706472 -2.94579,2.924212 0.598581,-0.7459 -8.890206,8.802905 -0.0061,0.138789 10.057843,0.235051 12.877097,0.123171 z M 37.101036,60.921677 c -0.211443,-0.228151 -0.42763,-0.550893 -0.480415,-0.717204 -0.124981,-0.393779 0.341,-1.125089 1.353559,-2.124276 0.442667,-0.436821 0.963961,-0.96913 1.158432,-1.182909 0.316301,-0.347705 0.924486,-0.939422 2.418554,-2.353066 0.262092,-0.247984 0.583751,-0.572487 0.714797,-0.721117 0.240246,-0.272482 1.417671,-1.414418 3.71774,-3.605681 1.208578,-1.151405 1.276003,-1.190948 2.011965,-1.179954 0.883203,0.01319 1.476308,0.217707 1.343986,0.88566 -0.37899,1.913123 -1.26872,2.352547 -1.681035,2.650619 -2.684431,1.940638 -5.319785,4.637713 -7.636675,6.887205 -0.425867,0.412762 -0.86566,0.97187 -1.074742,1.151618 -0.209083,0.179748 -0.459262,0.413445 -0.555954,0.519327 -0.295101,0.323149 -0.884973,0.227038 -1.290212,-0.210222 z m -0.168984,-4.151942 c -0.647509,-1.436021 0.418268,-2.120054 1.20397,-2.970727 2.40894,-2.608139 5.048406,-5.195057 7.77373,-7.552681 1.45707,-1.260482 1.156546,-1.098092 2.135394,-1.270751 0.113827,-0.02008 0.886976,0.03337 1.196993,0.534991 0.181854,0.294246 0.330643,0.692084 0.330643,0.884084 0,0.742435 -0.857553,1.503933 -1.38419,1.757803 -1.049315,0.505831 -1.507269,0.550208 -2.533796,1.573556 -0.534025,0.53237 -1.023744,0.967946 -1.088265,0.967946 -1.679799,1.819892 -3.533068,3.470193 -5.273471,5.230108 -1.401035,1.426588 -1.992761,1.662354 -2.361008,0.845671 z"
       id="path6"
       sodipodi:nodetypes="sssssssssssscssssscsssscsssssssssssssssssssssssssss" /></g></svg>
