<?xml version="1.0" encoding="UTF-8" standalone="no"?>
<!-- Created with Inkscape (http://www.inkscape.org/) -->

<svg
   width="32mm"
   height="32mm"
   viewBox="0 0 32.000001 32"
   version="1.1"
   id="svg1"
   inkscape:version="1.4.3 (0d15f75042, 2025-12-25)"
   sodipodi:docname="kyaraben-logo.svg"
   xml:space="preserve"
   xmlns:inkscape="http://www.inkscape.org/namespaces/inkscape"
   xmlns:sodipodi="http://sodipodi.sourceforge.net/DTD/sodipodi-0.dtd"
   xmlns="http://www.w3.org/2000/svg"
   xmlns:svg="http://www.w3.org/2000/svg"><sodipodi:namedview
     id="namedview1"
     pagecolor="#ffffff"
     bordercolor="#000000"
     borderopacity="0.25"
     inkscape:showpageshadow="2"
     inkscape:pageopacity="0.0"
     inkscape:pagecheckerboard="0"
     inkscape:deskcolor="#d1d1d1"
     inkscape:document-units="mm"
     inkscape:zoom="3.4514949"
     inkscape:cx="21.005391"
     inkscape:cy="70.83887"
     inkscape:window-width="1646"
     inkscape:window-height="987"
     inkscape:window-x="0"
     inkscape:window-y="0"
     inkscape:window-maximized="1"
     inkscape:current-layer="path6-3"><inkscape:page
       x="0"
       y="0"
       width="32"
       height="32"
       id="page6"
       margin="0"
       bleed="0" /></sodipodi:namedview><defs
     id="defs1"><rect
       x="142.06136"
       y="336.57614"
       width="334.39059"
       height="237.13319"
       id="rect6" /><rect
       x="114.74187"
       y="257.896"
       width="478.63751"
       height="179.21587"
       id="rect4" /><rect
       x="152.98915"
       y="266.63824"
       width="486.28696"
       height="206.53535"
       id="rect3" /><rect
       x="87.422371"
       y="227.29817"
       width="594.47217"
       height="335.48337"
       id="rect2" /><rect
       x="116.92743"
       y="115.83465"
       width="496.12198"
       height="195.60756"
       id="rect1" /></defs><g
     inkscape:label="Layer 1"
     inkscape:groupmode="layer"
     id="layer1"
     transform="translate(-27.178341,-37.587067)"><text
       xml:space="preserve"
       transform="scale(0.26458333)"
       id="text2"
       style="font-style:normal;font-variant:normal;font-weight:normal;font-stretch:normal;font-size:29.3333px;font-family:DotGothic16;-inkscape-font-specification:DotGothic16;writing-mode:lr-tb;direction:ltr;white-space:pre;shape-inside:url(#rect4);display:inline;fill:#000000" /><text
       xml:space="preserve"
       style="font-style:normal;font-variant:normal;font-weight:normal;font-stretch:normal;font-size:7.7611px;font-family:DotGothic16;-inkscape-font-specification:DotGothic16;writing-mode:lr-tb;direction:ltr;fill:#000000;stroke-width:0.264583"
       x="45.616135"
       y="86.406914"
       id="text5"><tspan
         sodipodi:role="line"
         id="tspan5"
         style="stroke-width:0.264583"
         x="45.616135"
         y="86.406914" /></text><g
       id="path6-3"
       style="opacity:1"
       transform="translate(-0.93946996,0.23486742)"><path
         id="path1"
         style="baseline-shift:baseline;display:inline;overflow:visible;vector-effect:none;fill:#d0ccc6;paint-order:stroke fill markers;enable-background:accumulate;stop-color:#000000;stop-opacity:1"
         d="m 50.586347,38.751705 c -2.190136,-0.04389 -5.116469,0.04304 -10.165788,0.09038 h -0.0021 -0.0041 c -3.468788,0.05594 -5.461609,0.114774 -8.191231,0.126607 -0.929139,0.0041 -2.140019,0.435122 -2.859257,1.615405 -0.719239,1.180284 -1.087431,2.929635 -1.138949,5.777426 -0.05571,3.079642 -0.03931,7.039546 0.04289,10.545092 0.0822,3.505546 0.209804,6.47267 0.451135,7.88479 0.198713,1.162745 0.965739,2.023594 1.830379,2.478402 0.864641,0.454808 2.394102,0.685021 3.300182,0.734322 3.570033,0.194251 10.54771,0.177851 16.926168,-0.0083 2.694744,-0.07864 5.682749,0.661521 8.011141,-1.40089 0.328314,-0.290809 0.893112,-1.23578 1.008786,-1.741492 0.115675,-0.505712 0.151065,-1.086024 0.169499,-1.937349 0.03687,-1.702651 -0.02632,-4.496976 -0.04082,-9.455237 -0.0047,-1.615486 0.188364,-3.786078 0.205155,-5.898348 0.01679,-2.11227 -0.08973,-4.176532 -0.992187,-5.769157 -0.583055,-1.029027 -1.379274,-2.275562 -2.892847,-2.617411 -1.968011,-0.444487 -3.643516,-0.383863 -5.658056,-0.42424 z"
         sodipodi:nodetypes="sccccscsssssssscscss" /></g></g><g
     inkscape:groupmode="layer"
     id="layer2"
     inkscape:label="Layer 2"><path
       style="fill:#000000;fill-opacity:1;stroke:none;stroke-width:2;stroke-linejoin:miter;stroke-dasharray:none;stroke-opacity:1;paint-order:stroke fill markers"
       d="m 53.745231,67.202877 c 1.355319,0.01758 3.179129,-0.338371 3.877525,-1.63565 0.2491,-0.524939 0.535413,-1.981163 0.506371,-11.912198 -0.0099,-3.388937 0.777755,-8.647544 -0.656988,-11.179518 -0.55689,-0.982775 -1.39579,-1.780734 -2.243092,-2.133619 -0.783289,-0.326226 -2.283437,-0.408712 -3.280099,0.111047 -0.504776,0.263241 -1.172705,0.733 -1.484286,1.043906 -1.225564,1.222915 -10.798512,10.763796 -12.014925,11.63404 -1.014199,0.385597 -2.468212,-0.442792 -2.468212,-1.406205 0,-0.351097 0.235459,-0.76019 0.785262,-1.364337 2.379222,-2.565911 4.813002,-4.91478 7.325441,-7.365096 2.267775,-2.165151 2.502344,-2.415285 2.502344,-2.668381 0,-0.284393 -1.665078,-0.355092 -6.959376,-0.295492 -3.463603,0.05586 -5.462065,0.115039 -8.203969,0.126925 -1.458225,0.0064 -2.901141,0.887808 -3.001064,6.411243 -0.110737,6.121203 0.06388,15.806146 0.48023,18.242361 0.297449,1.740489 1.950065,2.390976 3.686222,2.390976 1.762856,0 2.368954,-0.378974 5.423905,-3.391388 1.456368,-1.436091 2.730638,-2.689366 2.831709,-2.785058 0.101076,-0.09569 0.995036,-1.081804 2.086307,-2.087813 5.00992,-4.618493 -1.270317,1.025624 3.933228,-3.709905 0.480792,-0.437547 1.686392,-1.083038 2.298028,-0.767162 1.199107,0.619273 1.293666,1.963519 0.208528,2.964445 -3.226573,3.202938 0.655636,-0.816997 -9.737592,9.64197 -0.0067,0.152018 11.016525,0.257455 14.104501,0.134911 z m -17.157501,-4.456 c -0.231597,-0.249898 -0.46839,-0.603402 -0.526206,-0.785566 -0.136894,-0.431312 0.373503,-1.232328 1.482576,-2.326755 0.48486,-0.478457 1.055842,-1.061504 1.26885,-1.29566 0.34645,-0.380847 1.012605,-1.028965 2.649083,-2.577353 0.287073,-0.271621 0.639392,-0.627054 0.782929,-0.789851 0.263145,-0.298455 1.552799,-1.549236 4.072103,-3.949364 1.323776,-1.261153 1.397628,-1.304465 2.203739,-1.292423 0.967387,0.01445 1.617025,0.238458 1.472091,0.970078 -0.415114,2.095476 -1.389651,2.576785 -1.841266,2.903268 -2.940303,2.125613 -5.82685,5.079765 -8.364579,7.543672 -0.466459,0.452105 -0.948172,1.064505 -1.177183,1.261386 -0.229012,0.196881 -0.503037,0.452853 -0.608946,0.568828 -0.323229,0.35395 -0.969326,0.248678 -1.413191,-0.23026 z m -0.185091,-4.547692 c -0.709227,-1.572898 0.458136,-2.322131 1.318729,-3.253887 2.638552,-2.856739 5.529604,-5.690234 8.514697,-8.272579 1.595954,-1.380627 1.266785,-1.202759 2.338933,-1.391875 0.124677,-0.02199 0.97152,0.03655 1.311087,0.585985 0.199188,0.322292 0.362159,0.758051 0.362159,0.968352 0,0.813201 -0.939292,1.647283 -1.516127,1.925351 -1.149332,0.554045 -1.650937,0.602652 -2.775309,1.723542 -0.584927,0.583114 -1.121324,1.060208 -1.191995,1.060208 -1.839912,1.993358 -3.869829,3.800961 -5.776122,5.728625 -1.534577,1.562566 -2.182705,1.820805 -2.586052,0.926278 z"
       id="path6"
       sodipodi:nodetypes="sssssssssssscssssscsssscsssssssssssssssssssssssssss"
       transform="translate(-27.178341,-37.587068)" /></g></svg>
